<?xml version="1.0" encoding="utf-8"?>
<!-- Generator: Adobe Illustrator 19.1.0, SVG Export Plug-In . SVG Version: 6.00 Build 0)  -->
<svg version="1.1" id="Layer_1" xmlns="http://www.w3.org/2000/svg" xmlns:xlink="http://www.w3.org/1999/xlink" x="0px" y="0px"
	 viewBox="0 0 212 49" style="enable-background:new 0 0 212 49;" xml:space="preserve">
<style type="text/css">
	.Arched_x0020_Green{fill:url(#SVGID_1_);stroke:#FFFFFF;stroke-width:0.25;stroke-miterlimit:1;}
	.st0{fill:#F89A1C;}
	.st1{fill:#FFFFFF;}
</style>
<linearGradient id="SVGID_1_" gradientUnits="userSpaceOnUse" x1="0" y1="301.5195" x2="0.7071" y2="300.8124">
	<stop  offset="0" style="stop-color:#1EAC4A"/>
	<stop  offset="0.9831" style="stop-color:#173519"/>
</linearGradient>
<path class="st0" d="M15,27.5c-1.5,3.1-4.4,7.3-8.3,7.3c-2.2,0-3.6-1.5-3.6-3.8c0-1.8,0.7-3.9,1.3-5.6l1.1-3.2C6,21.1,7.1,18,7.1,17
	c0-0.7-0.4-1.2-1.1-1.2c-1.4,0-3.4,3.2-4.1,4.4L1,19.6c1.7-3,4.4-6.8,8.2-6.8c2,0,3.6,1.2,3.6,3.4c0,1.6-0.7,3.7-1.2,5.3l-2,6
	c-0.2,0.7-0.7,2-0.7,2.8c0,0.6,0.5,1.2,1.1,1.2c1.7,0,3.2-3.2,4.1-4.5L15,27.5z"/>
<path class="st0" d="M8.8,5.5c0-1.8,1.4-3.2,3.2-3.2c1.7,0,3.1,1.4,3.1,3.2c0,1.7-1.4,3.2-3.1,3.2C10.2,8.7,8.8,7.3,8.8,5.5z"/>
<path class="st1" d="M25,25.6c-0.3,1.2-1.2,3.9-1.2,5.1c0,2.3,2.2,1.8,4.2,1.9l-0.4,1.7c-2.7,0-5.3-0.1-8-0.2
	c-2.4,0-4.8,0.1-7.1,0.2l0.4-1.7c3.5,0,3.8-1.7,4.6-4.7l4.9-17.6c0.3-1.2,1.2-3.9,1.2-5.1c0-2.4-2.2-1.9-4.2-2l0.4-1.7
	c2.3,0,4.8,0.1,7.1,0.2c2,0,4-0.1,5.9-0.2c5.2,0,12.7,1.2,12.7,7.9c0,7.9-8.2,9.6-14.5,9.6l-4.2-0.1L25,25.6z M27.4,16.7L27.4,16.7
	c0.8,0,1.7,0.1,2.6,0.1c5.2,0,8.4-3.3,8.4-8.6c0-3.5-2.2-4.6-5.4-4.6c-2.4,0-2.3,1.3-2.8,3.3L27.4,16.7z"/>
<path class="st1" d="M55.7,26.3c0-6.9,5.2-13.5,12.3-13.5c5.1,0,8.2,3.7,8.2,8.6c0,6.7-5.4,13.4-12.3,13.4
	C58.9,34.8,55.7,31.2,55.7,26.3z M63.1,20.8c-0.9,2.5-1.9,6.2-1.9,8.9c0,1.5,0.6,3.4,2.5,3.4c4.6,0,7.1-12,7.1-15.5
	c0-1.6-0.7-3.1-2.5-3.1C65.3,14.5,63.9,18.5,63.1,20.8z"/>
<path class="st1" d="M80.6,37.8c-1.5,4.7-3.9,9.7-9.5,9.7c-2,0-4.3-1-4.3-3.3c0-1.2,1-2.4,2.3-2.4c1.3,0,2,1,2.1,2.2
	c0,0.6,0.2,1.5,1,1.5c1.3,0,1.5-1.6,1.8-2.5c0.7-2.9,1.4-5.7,2.1-8.6l4.4-18.9h-4.2l0.5-2h4.1C82.5,7.9,85.4,1,92.4,1
	c1.9,0,4.9,0.5,4.9,3c0,1.2-1,2.4-2.3,2.4c-2.8,0-2.2-3.4-4.2-3.4c-1.4,0-2,1.6-2.4,2.6c-0.9,2.6-1.4,5.3-2,7.9h4.7l-0.5,2H86
	L80.6,37.8z"/>
<path class="st1" d="M103.2,28.3c-2.3,3.4-5.4,6.4-9.7,6.4c-4.5,0-7.1-2.8-7.1-7.4c0-7.4,5.4-14.6,13.1-14.6c2.6,0,6,1,6,4.2
	c0,5.6-8.8,7.5-13.1,8.6c-0.1,0.9-0.3,1.9-0.3,2.8c0,1.9,1,3.7,3.2,3.7c2.8,0,5-2.7,6.6-4.7L103.2,28.3z M100.9,16.3
	c0-1.1-0.6-2-1.8-2c-3.6,0-5.4,6.9-6.1,9.7C96.2,22.9,100.9,20.2,100.9,16.3z"/>
<path class="st1" d="M107,19.2c0-4.3,4.1-6.4,7.9-6.4c2.4,0,5.9,0.8,5.9,3.9c0,1.2-0.9,2.1-2.1,2.1c-1.5,0-2.1-1.3-2.1-2.6
	c-0.1-1.2-0.4-1.7-1.7-1.7c-1.6,0-2.7,0.8-2.7,2.3c0,1.8,1.5,3.2,2.7,4.3c1.9,2,3.6,4,3.6,6.9c0,4.3-4.4,6.8-8.2,6.8
	c-2.8,0-6.7-1.3-6.7-4.8c0-1.3,0.8-2.3,2.2-2.3c1.2,0,2.3,0.8,2.3,2.2l0,0.8l0,0.8c0,1.1,1.1,1.6,2,1.6c1.7,0,3-1.4,3-3.1
	c0-1.7-0.9-2.6-2-3.8C109.3,24.2,107,21.9,107,19.2z"/>
<path class="st1" d="M131,26.3c0-6.9,5.2-13.5,12.3-13.5c5.1,0,8.2,3.7,8.2,8.6c0,6.7-5.4,13.4-12.3,13.4
	C134.1,34.8,131,31.2,131,26.3z M138.4,20.8c-0.9,2.5-1.9,6.2-1.9,8.9c0,1.5,0.6,3.4,2.5,3.4c4.6,0,7.1-12,7.1-15.5
	c0-1.6-0.7-3.1-2.5-3.1C140.6,14.5,139.1,18.5,138.4,20.8z"/>
<path class="st1" d="M153.6,26.3c0.6-2.2,2-6.6,2-8.9c0-0.5-0.2-1.3-0.9-1.3c-1.3,0-2.8,3.1-3.3,4.2l-1-0.4c1.3-3.2,3.6-7,7.4-7
	c2.2,0,3.2,1.3,3.2,3.4l-0.2,2.8l-0.1,0.9l0.1,0.1c1.6-3.5,4.7-7.3,8.9-7.3c2.5,0,4,1.4,4,3.9c0,1.6-0.7,4-1.2,5.6l-0.9,2.9
	c-0.3,1-1.6,4.4-1.6,5.4c0,0.4,0.3,1.1,0.8,1.1c1.4,0,3-3.2,3.6-4.2l1,0.5c-1.4,2.9-3.9,6.8-7.6,6.8c-2.1,0-3.6-1.4-3.6-3.5
	c0-1.4,0.8-4.1,1.2-5.5l1-3c0.4-1.2,1.6-4.7,1.6-5.8c0-0.6-0.4-1.2-1.1-1.2c-4.3,0.1-7,9-8.1,12.1l-2.2,6.3h-5.2L153.6,26.3z"/>
<path class="st1" d="M192.4,12.8h5.2l-3.7,13.3c-0.2,0.8-0.8,2.9-0.8,3.7c0,0.6,0.2,1.7,0.9,1.7c1.5,0,3-3.3,3.7-4.5l1,0.4
	c-1.3,3.1-4,7.3-7.7,7.3c-1.9,0-3.2-1.5-3.2-3.3l0.1-1.8l-0.1-0.1c-1.5,2.8-4.1,5.2-7.4,5.2c-4.2,0-6.1-3.3-6.1-7.2
	c0-6.4,5-14.8,12.1-14.8c2.3,0,4,1.1,4.9,3.2L192.4,12.8z M180.2,28.6c0,1.4,0.7,3.2,2.4,3.2c4.5,0,7.5-9.9,7.5-13.5
	c0-1.6-0.9-2.8-2.6-2.8C183.2,15.5,180.2,25.1,180.2,28.6z"/>
<path class="st1" d="M203.4,25.5c-0.3,1.2-0.9,3.1-0.9,4.3c0,0.6,0,1.8,0.9,1.8c1.4,0,3-3.8,3.5-5.1l1.1,0.3c-1.2,3.3-3.6,8-7.6,8
	c-2.3,0-3.6-1.5-3.6-3.8c0-1.5,0.5-3.6,0.9-5.1l4.5-16.6c0.3-1,0.9-3.5,0.9-4.5c0-1.7-2.6-1.7-3.8-1.7l0.4-1.5L210.3,1L203.4,25.5z"
	/>
<path class="st1" d="M127.1,31.5c-0.6,0-1.1-0.6-1.1-1.2c0-0.8,0.5-2.1,0.7-2.8l2-6c0.5-1.6,1.2-3.6,1.2-5.3c0-2.2-1.6-3.4-3.6-3.4
	c-3.1,0-5.4,2.6-7.1,5.1h1.3c0.8-1.1,1.8-2.1,2.6-2.1c0.7,0,1.1,0.5,1.1,1.2c0,1-1.1,4.1-1.5,5.2l-1.1,3.2c-0.6,1.7-1.3,3.8-1.3,5.6
	c0,2.2,1.3,3.8,3.6,3.8c3.9,0,6.7-4.2,8.3-7.3l-0.9-0.4C130.3,28.3,128.8,31.5,127.1,31.5z"/>
<path class="st1" d="M129.1,8.7c1.7,0,3.1-1.5,3.1-3.2c0-1.7-1.4-3.2-3.1-3.2c-1.8,0-3.2,1.4-3.2,3.2C125.9,7.3,127.3,8.7,129.1,8.7
	z"/>
<path class="st1" d="M55.6,12.8c-3.9,0-5.9,4.7-7.3,7.7l-0.1-0.1c0.1-1.3,0.4-2.7,0.4-4.1c0-1.8-1-3.5-3-3.5c-2.2,0-3.9,1.4-5.2,3.1
	l2.2,0.3l0,0c0.5,0.1,0.6,0.7,0.6,1.2c0,2.8-1.3,7.8-2.1,10.6l-1.9,6.2h5.5l1.8-5.3c0.7-2.2,3.8-11.8,6.5-11.8c1.2,0,1.1,2,3.2,2
	c1.7,0,3-1.1,3-2.9C59.1,14.1,57.6,12.8,55.6,12.8z"/>
</svg>
